<svg width="999" height="999" viewBox="0 0 999 999" fill="none" xmlns="http://www.w3.org/2000/svg">
<g clip-path="url(#clip0_68_11)">
<path d="M253.32 995.47C193.91 992.76 161.64 982.88 140.17 974.47C111.73 963.39 91.45 950.21 70.1 928.89C48.75 907.57 35.54 887.29 24.52 858.89C16.15 837.42 6.26 805.15 3.52 745.74C0.59 681.52 0 662.25 0 499.54C0 336.83 0.65 317.6 3.53 253.32C6.24 193.91 16.18 161.7 24.53 140.17C35.61 111.73 48.82 91.45 70.11 70.07C91.4 48.69 111.71 35.51 140.18 24.49C161.65 16.12 193.92 6.24 253.33 3.49C317.54 0.59 336.84 0 499.49 0C662.14 0 681.43 0.65 745.71 3.53C805.12 6.24 837.33 16.18 858.86 24.53C887.3 35.53 907.58 48.79 928.93 70.11C950.28 91.43 963.43 111.74 974.51 140.18C982.88 161.65 992.76 193.92 995.51 253.33C998.45 317.61 999.04 336.85 999.04 499.55C999.04 662.25 998.45 681.55 995.51 745.78C992.8 805.19 982.86 837.46 974.51 858.93C963.43 887.37 950.25 907.65 928.93 928.93C907.61 950.21 887.3 963.43 858.86 974.51C837.39 982.88 805.12 992.76 745.71 995.51C681.49 998.45 662.19 999.04 499.49 999.04C336.79 999.04 317.54 998.48 253.32 995.51" fill="url(#paint0_radial_68_11)"/>
<path d="M253.32 995.47C193.91 992.76 161.64 982.88 140.17 974.47C111.73 963.39 91.45 950.21 70.1 928.89C48.75 907.57 35.54 887.29 24.52 858.89C16.15 837.42 6.26 805.15 3.52 745.74C0.59 681.52 0 662.25 0 499.54C0 336.83 0.65 317.6 3.53 253.32C6.24 193.91 16.18 161.7 24.53 140.17C35.61 111.73 48.82 91.45 70.11 70.07C91.4 48.69 111.71 35.51 140.18 24.49C161.65 16.12 193.92 6.24 253.33 3.49C317.54 0.59 336.84 0 499.49 0C662.14 0 681.43 0.65 745.71 3.53C805.12 6.24 837.33 16.18 858.86 24.53C887.3 35.53 907.58 48.79 928.93 70.11C950.28 91.43 963.43 111.74 974.51 140.18C982.88 161.65 992.76 193.92 995.51 253.33C998.45 317.61 999.04 336.85 999.04 499.55C999.04 662.25 998.45 681.55 995.51 745.78C992.8 805.19 982.86 837.46 974.51 858.93C963.43 887.37 950.25 907.65 928.93 928.93C907.61 950.21 887.3 963.43 858.86 974.51C837.39 982.88 805.12 992.76 745.71 995.51C681.49 998.45 662.19 999.04 499.49 999.04C336.79 999.04 317.54 998.48 253.32 995.51" fill="url(#paint1_radial_68_11)"/>
<path d="M376.85 501.63C376.852 477.162 384.11 453.244 397.705 432.901C411.301 412.557 430.623 396.703 453.23 387.342C475.836 377.98 500.711 375.533 524.708 380.309C548.705 385.085 570.747 396.87 588.047 414.174C605.346 431.478 617.126 453.522 621.896 477.521C626.666 501.519 624.213 526.393 614.846 548.997C605.48 571.602 589.62 590.92 569.274 604.511C548.928 618.102 525.008 625.353 500.54 625.349C467.732 625.344 436.269 612.307 413.073 589.105C389.877 565.903 376.847 534.438 376.85 501.63ZM309.97 501.63C309.97 606.88 395.29 692.2 500.54 692.2C605.79 692.2 691.11 606.88 691.11 501.63C691.11 396.38 605.79 311.06 500.54 311.06C395.29 311.06 310 396.37 310 501.63M654.12 303.5C654.112 312.31 656.717 320.924 661.606 328.253C666.494 335.583 673.446 341.298 681.583 344.676C689.72 348.054 698.676 348.942 707.318 347.23C715.96 345.518 723.899 341.281 730.133 335.055C736.367 328.83 740.615 320.895 742.339 312.256C744.063 303.616 743.186 294.659 739.819 286.518C736.452 278.377 730.747 271.417 723.424 266.518C716.101 261.62 707.49 259.003 698.68 259C686.872 259.005 675.55 263.696 667.198 272.044C658.847 280.391 654.151 291.712 654.14 303.52M350.6 803.719C314.42 802.079 294.75 796.05 281.68 790.96C264.35 784.21 252 776.18 239 763.2C226 750.22 218 737.869 211.24 720.539C206.15 707.469 200.12 687.8 198.47 651.62C196.67 612.5 196.32 600.74 196.32 501.62C196.32 402.5 196.7 390.8 198.47 351.62C200.12 315.44 206.19 295.8 211.24 282.7C218 265.4 226 253 239 240C252 227 264.33 219 281.69 212.24C294.75 207.15 314.43 201.12 350.61 199.48C389.73 197.68 401.48 197.32 500.55 197.32C599.62 197.32 611.38 197.7 650.55 199.48C686.74 201.13 706.37 207.2 719.47 212.25C736.8 218.96 749.16 227.03 762.16 240.01C775.16 252.99 783.16 265.37 789.92 282.7C795.02 295.76 801.04 315.43 802.69 351.62C804.49 390.77 804.85 402.49 804.85 501.62C804.85 600.75 804.49 612.45 802.69 651.62C801.04 687.81 794.98 707.469 789.92 720.539C783.18 737.869 775.14 750.23 762.16 763.2C749.18 776.17 736.8 784.2 719.47 790.96C706.41 796.06 686.74 802.089 650.55 803.729C611.43 805.529 599.68 805.89 500.55 805.89C401.42 805.89 389.72 805.529 350.61 803.729M347.54 132.73C308 134.54 281 140.81 257.44 150C232.68 159.33 210.247 173.938 191.7 192.81C171.04 213.43 158.37 234.12 148.89 258.55C139.72 282.15 133.45 309.13 131.65 348.64C129.85 388.15 129.41 400.86 129.41 501.64C129.41 602.42 129.83 615.08 131.65 654.64C133.47 694.2 139.72 721.129 148.89 744.719C158.37 769.129 171.05 789.849 191.7 810.469C212.35 831.089 233.01 843.77 257.44 853.28C281.07 862.45 308.02 868.71 347.53 870.51C387.04 872.31 399.75 872.76 500.53 872.76C601.31 872.76 613.97 872.34 653.53 870.51C693.09 868.68 720.02 862.45 743.61 853.28C768.02 843.77 788.7 831.089 809.36 810.469C830.02 789.849 842.66 769.129 852.17 744.719C861.34 721.129 867.63 694.15 869.4 654.64C871.17 615.13 871.62 602.42 871.62 501.64C871.62 400.86 871.2 388.2 869.4 348.64C867.6 309.08 861.34 282.13 852.17 258.55C842.66 234.15 829.98 213.47 809.36 192.81C788.74 172.15 768 159.46 743.66 150C720.04 140.83 693.06 134.53 653.58 132.76C614.1 130.99 601.36 130.52 500.58 130.52C399.8 130.52 387.14 130.93 347.58 132.76" fill="#666666"/>
</g>
<defs>
<radialGradient id="paint0_radial_68_11" cx="0" cy="0" r="1" gradientUnits="userSpaceOnUse" gradientTransform="translate(64.65 977.11) scale(1268.25)">
<stop offset="0.09" stop-color="white"/>
<stop offset="0.78" stop-color="white"/>
</radialGradient>
<radialGradient id="paint1_radial_68_11" cx="0" cy="0" r="1" gradientUnits="userSpaceOnUse" gradientTransform="translate(691.91 945.04) scale(1116.07)">
<stop offset="0.64" stop-color="white" stop-opacity="0"/>
<stop offset="1" stop-color="white"/>
</radialGradient>
<clipPath id="clip0_68_11">
<rect width="999" height="999" fill="white"/>
</clipPath>
</defs>
</svg>
