<svg width="976" height="976" viewBox="0 0 976 976" fill="none" xmlns="http://www.w3.org/2000/svg">
<g clip-path="url(#clip0_68_5)">
<path d="M0 69.91C0 31.32 32.3 0 72.12 0H903.76C943.59 0 975.88 31.32 975.88 69.91V906C975.88 944.6 943.59 975.89 903.76 975.89H72.12C32.31 975.88 0 944.59 0 906V69.91Z" fill="white"/>
<path d="M296.56 816.68V377.34H150.56V816.68H296.56ZM223.56 317.36C274.47 317.36 306.17 283.63 306.17 241.47C305.17 198.34 274.47 165.55 224.52 165.55C174.57 165.55 141.9 198.34 141.9 241.46C141.9 283.62 173.59 317.36 222.6 317.36H223.6H223.56ZM377.39 816.68H523.39V571.36C523.39 558.25 524.39 545.1 528.2 535.73C538.75 509.49 562.78 482.32 603.13 482.32C655.96 482.32 677.13 522.6 677.13 581.67V816.67H823.13V564.78C823.14 429.83 751.11 367 655 367C576.24 367 541.64 411 522.42 441H523.42V377.3H377.42C379.33 418.52 377.42 816.65 377.42 816.65L377.39 816.68Z" fill="#666666"/>
</g>
<defs>
<clipPath id="clip0_68_5">
<rect width="975.88" height="975.88" fill="white"/>
</clipPath>
</defs>
</svg>
