<svg width="1004" height="1004" viewBox="0 0 1004 1004" fill="none" xmlns="http://www.w3.org/2000/svg">
<g clip-path="url(#clip0_68_8)">
<path d="M1003.82 749.12C1003.82 754.62 1003.66 766.55 1003.34 775.74C1002.53 798.27 1000.73 827.34 998.04 840.59C993.98 860.51 987.84 879.3 979.85 894.92C961.224 931.614 931.391 961.418 894.68 980.01C878.94 988.01 860.07 994.14 840.03 998.2C826.9 1000.85 798.03 1002.62 775.66 1003.38C766.43 1003.7 754.54 1003.86 749.04 1003.86L254.74 1003.78C249.24 1003.78 237.31 1003.62 228.12 1003.3C205.59 1002.49 176.52 1000.69 163.27 998C143.35 993.94 124.56 987.8 108.94 979.81C72.2648 961.175 42.4785 931.343 23.9 894.64C15.9 878.9 9.76999 860.03 5.70999 839.99C3.05999 826.86 1.28999 797.99 0.529988 775.62C0.209988 766.39 0.0499878 754.5 0.0499878 749L0.129988 254.7C0.129988 249.2 0.289988 237.27 0.609988 228.08C1.35999 205.59 3.12999 176.53 5.89999 163.27C9.89999 143.35 16.06 124.53 24.05 108.94C42.6759 72.2461 72.5088 42.4413 109.22 23.8498C124.96 15.8498 143.83 9.7198 163.87 5.6598C177 3.0098 205.83 1.2398 228.24 0.529805C237.47 0.209805 249.36 0.0498047 254.86 0.0498047L749.16 0.129805C754.66 0.129805 766.59 0.289805 775.78 0.609805C798.31 1.4198 827.38 3.2198 840.63 5.9098C860.55 9.9698 879.34 16.1098 894.96 24.0998C931.654 42.7258 961.459 72.5586 980.05 109.27C988.05 125.01 994.18 143.88 998.24 163.92C1000.89 177.05 1002.66 205.92 1003.42 228.29C1003.74 237.52 1003.9 249.41 1003.9 254.91L1003.82 749.17V749.12Z" fill="url(#paint0_linear_68_8)"/>
<path d="M767.9 237.53C734.544 203.967 694.862 177.354 651.151 159.231C607.44 141.108 560.569 131.836 513.25 131.95C314.85 131.95 153.35 293.37 153.25 491.81C153.16 554.971 169.738 617.037 201.31 671.74L150.26 858.22L341.07 808.15C393.848 836.88 452.979 851.941 513.07 851.96H513.23C711.64 851.96 873.14 690.5 873.23 492.09C873.373 444.803 864.137 397.957 846.057 354.262C827.977 310.568 801.413 270.892 767.9 237.53ZM513.25 791.2H513.13C459.548 791.195 406.951 776.804 360.83 749.53L349.9 743.06L236.67 772.77L266.9 662.39L259.79 651.06C229.825 603.368 213.955 548.175 214.01 491.85C214.09 326.94 348.29 192.74 513.36 192.74C552.654 192.756 591.56 200.512 627.857 215.564C664.153 230.617 697.129 252.672 724.902 280.469C752.674 308.267 774.699 341.263 789.719 377.573C804.739 413.883 812.46 452.796 812.44 492.09C812.44 657.01 678.17 791.2 513.25 791.2ZM677.36 567.2C668.36 562.7 624.16 540.94 615.89 537.93C607.62 534.92 601.63 533.43 595.65 542.43C589.67 551.43 572.4 571.7 567.18 577.68C561.96 583.66 556.7 584.43 547.71 579.93C538.72 575.43 509.71 565.93 475.39 535.32C448.64 511.47 430.58 482.03 425.39 473.04C420.2 464.05 424.82 459.19 429.32 454.69C433.38 450.69 438.32 444.17 442.81 438.95C447.3 433.73 448.81 429.95 451.81 423.95C454.81 417.95 453.29 412.71 451.04 408.21C448.79 403.71 430.81 359.46 423.3 341.43C415.99 323.89 408.56 326.25 403.06 326.01C397.8 325.77 391.82 325.69 385.83 325.69C379.84 325.69 370.09 327.94 361.83 336.94C353.57 345.94 330.35 367.69 330.35 411.94C330.35 456.19 362.59 498.94 367.09 504.94C371.59 510.94 430.54 601.75 520.76 640.7C537.503 647.942 554.621 654.284 572.04 659.7C593.6 666.53 613.2 665.53 628.7 663.23C645.96 660.66 681.9 641.47 689.41 620.47C696.92 599.47 696.92 581.47 694.67 577.7C692.42 573.93 686.36 571.7 677.36 567.18V567.2Z" fill="#666666"/>
</g>
<defs>
<linearGradient id="paint0_linear_68_8" x1="500.879" y1="1.3898" x2="500.879" y2="1004.67" gradientUnits="userSpaceOnUse">
<stop stop-color="white"/>
<stop offset="1" stop-color="white"/>
</linearGradient>
<clipPath id="clip0_68_8">
<rect width="1003.9" height="1003.86" fill="white"/>
</clipPath>
</defs>
</svg>
